<!DOCTYPE svg PUBLIC "-//W3C//DTD SVG 1.1//EN" "http://www.w3.org/Graphics/SVG/1.1/DTD/svg11.dtd">
<!-- Uploaded to: SVG Repo, www.svgrepo.com, Transformed by: SVG Repo Mixer Tools -->
<svg fill="#04364a" width="800px" height="800px" viewBox="0 0 64 64" xmlns="http://www.w3.org/2000/svg">
<g id="SVGRepo_bgCarrier" stroke-width="0"/>
<g id="SVGRepo_tracerCarrier" stroke-linecap="round" stroke-linejoin="round"/>
<g id="SVGRepo_iconCarrier"> <g id="a"/> <g id="b"> <path d="M54.7119,32.5225c-1.4199-7.9907-9.7197-8.8916-9.8027-8.8999-.1836-.0205-.3447,.0576-.4492,.1978-.1045,.1396-.1289,.3237-.0635,.4858,.9707,2.4233,.9971,4.5083,.0752,5.8711-.6455,.9531-1.5703,1.293-2.2217,1.293-.5771,0-1.0566-.2466-1.3848-.7134-.8066-1.1479-.6777-3.4546,.3555-6.3286,1.9229-5.374,1.7686-6.5674,1.5254-8.4492-.9385-7.6611-8.3887-6.9639-8.4688-6.9561-.1641,.0171-.3086,.1167-.3867,.2622s-.0781,.3223-.002,.4692c.0518,.1011,1.2451,2.5117-2.21,5.561-.7949,.7021-1.8213,1.4355-3.0107,2.2847-4.9277,3.5205-11.6777,8.3423-11.6777,17.8101,0,1.2759,.1245,2.4825,.3276,3.6279h-5.6206c-1.4814,0-2.6865,1.1841-2.6865,2.6392v10.6948c0,1.4551,1.2051,2.6387,2.6865,2.6387H31.3857c.0596,0,.1191-.0107,.1748-.0312,1.3945-.5197,2.5797-1.1851,3.6393-2.045,.4312,.0216,.867,.0372,1.3138,.0372,.7139,0,1.4443-.0278,2.1855-.083,5.3633-.4199,9.7744-2.6768,12.7559-6.5264,2.9492-3.8081,4.1367-8.8525,3.2568-13.8398Zm-23.417,21.4883H11.6973c-.9297,0-1.6865-.7354-1.6865-1.6387v-10.6948c0-.9038,.7568-1.6392,1.6865-1.6392H31.2949c2.707,1.0264,4.5117,2.5654,6.21,5.292,.6504,1.0449,.6504,2.3433,0,3.3887-1.6982,2.7261-3.502,4.2651-6.21,5.292Zm19.3701-8.2607c-2.8047,3.6206-6.9688,5.7441-12.042,6.1416-.8026,.0599-1.5843,.0736-2.3536,.0663,.7435-.7668,1.4291-1.658,2.0851-2.7108,.8525-1.3711,.8525-3.0742,0-4.4458-1.8203-2.9209-3.8525-4.6353-6.7939-5.7319-.0557-.0205-.1152-.0312-.1748-.0312h-13.0573c-.2136-1.1364-.3382-2.3463-.3382-3.6279,0-8.9531,6.5078-13.6021,11.2598-16.9961,1.2109-.8652,2.2568-1.6128,3.0908-2.3491,2.9639-2.6162,2.9404-4.9424,2.6787-6.0688,1.6738,.0225,6.0625,.6201,6.7451,6.187,.2139,1.6621,.3564,2.7607-1.4854,7.9077-1.1611,3.2305-1.2441,5.8022-.2314,7.2412,.5156,.7339,1.2979,1.1382,2.2021,1.1382,1.1582,0,2.3262-.6641,3.0498-1.7324,.5957-.8809,1.377-2.7847,.3232-5.9863,2.0049,.4194,7.0566,2.0513,8.1045,7.9453,.8311,4.7095-.2861,9.4673-3.0625,13.0532Zm-18.6543-1.7256c-1.6543,0-3,1.3457-3,3s1.3457,3,3,3,3-1.3457,3-3-1.3457-3-3-3Zm0,5c-1.1025,0-2-.897-2-2s.8975-2,2-2,2,.897,2,2-.8975,2-2,2Zm-10.6973-6.1953l-7.875,9c-.0986,.1133-.2373,.1709-.376,.1709-.1172,0-.2344-.0405-.3291-.1235-.208-.1821-.2295-.498-.0469-.7056l7.875-9c.1816-.209,.498-.229,.7051-.0474,.208,.1821,.2295,.498,.0469,.7056Zm-1.3135,5.1709c-1.1025,0-2,.897-2,2s.8975,2,2,2,2-.897,2-2-.8975-2-2-2Zm0,3c-.5518,0-1-.4487-1-1s.4482-1,1-1,1,.4487,1,1-.4482,1-1,1Zm-6-5c1.1025,0,2-.897,2-2s-.8975-2-2-2-2,.897-2,2,.8975,2,2,2Zm0-3c.5518,0,1,.4487,1,1s-.4482,1-1,1-1-.4487-1-1,.4482-1,1-1Z"/> </g> </g>
</svg>